<?xml version="1.0" encoding="utf-8"?>
<!-- Generator: Adobe Illustrator 25.2.1, SVG Export Plug-In . SVG Version: 6.00 Build 0)  -->
<svg version="1.1" id="Camada_1" xmlns="http://www.w3.org/2000/svg" xmlns:xlink="http://www.w3.org/1999/xlink" x="0px" y="0px"
	 viewBox="0 0 772.06 144.12" style="enable-background:new 0 0 772.06 144.12;" xml:space="preserve">
<style type="text/css">
	.st0{fill-rule:evenodd;clip-rule:evenodd;fill:#A1BD42;}
	.st1{fill-rule:evenodd;clip-rule:evenodd;fill:#384E66;}
	.st2{enable-background:new    ;}
	.st3{fill:#384E66;}
	.st4{fill-rule:evenodd;clip-rule:evenodd;fill:#FEFEFE;}
</style>
<g>
	<path class="st0" d="M157.24,101.46h11.9V52.48l37.98,48.98h10.13V32.61h-11.91v47.61l-36.87-47.61h-11.22L157.24,101.46
		L157.24,101.46z M249.34,92.22c-9.25,0-15.84-7.57-15.84-16.62v-0.2c0-9.05,6.1-16.52,15.64-16.52c9.35,0,15.93,7.58,15.93,16.73
		v0.19C265.07,84.74,258.98,92.22,249.34,92.22L249.34,92.22z M249.14,102.64c16.03,0,27.83-12.3,27.83-27.05v-0.2
		c0-14.85-11.7-26.95-27.64-26.95c-15.93,0-27.74,12.3-27.74,27.15v0.19C221.6,90.54,233.3,102.64,249.14,102.64L249.14,102.64z
		 M293.43,101.85l-21.34-52.33h12.79l13.96,38.16l14.06-38.16h12.49l-21.25,52.33L293.43,101.85L293.43,101.85z M342.25,93.89
		c-5.7,0-10.12-2.85-10.12-7.87v-0.2c0-5.42,4.52-8.66,12.2-8.66c4.72,0,8.75,0.89,11.79,2.07v3.54
		C356.11,89.36,350.11,93.89,342.25,93.89L342.25,93.89z M338.91,102.55c7.97,0,13.37-3.35,16.92-7.58v6.49h11.61V70.68
		c0-6.79-1.77-12.29-5.61-16.03c-3.63-3.74-9.45-5.81-17.21-5.81c-8.27,0-13.87,1.67-19.58,4.23l3.14,9.34
		c4.73-1.97,9.05-3.25,14.85-3.25c8.36,0,12.88,3.94,12.88,11.31v1.28c-4.03-1.28-8.16-2.16-13.97-2.16
		c-12.69,0-21.44,5.5-21.44,16.72v0.2C320.51,96.94,329.17,102.55,338.91,102.55z"/>
	<path class="st1" d="M739.85,88.08L725.2,49.53h-12.79l21.64,52.03c-1.96,4.42-4.03,5.9-7.37,5.9c-2.45,0-4.82-0.78-6.99-1.96
		l-4.03,8.85c3.65,1.96,7.39,3.14,12.3,3.14c8.35,0,12.97-3.93,17.11-14.55l20.65-53.41h-12.39L739.85,88.08L739.85,88.08z
		 M688.97,93.89c7.87,0,13.87-4.53,13.87-11.11v-3.55c-3.05-1.18-7.08-2.07-11.8-2.07c-7.67,0-12.2,3.25-12.2,8.66v0.2
		C678.84,91.03,683.26,93.89,688.97,93.89L688.97,93.89z M685.62,102.55c-9.74,0-18.39-5.61-18.39-16.04v-0.2
		c0-11.21,8.75-16.72,21.44-16.72c5.81,0,9.94,0.89,13.97,2.16v-1.28c0-7.38-4.53-11.31-12.9-11.31c-5.79,0-10.13,1.28-14.84,3.25
		l-3.15-9.35c5.71-2.56,11.31-4.23,19.58-4.23c7.77,0,13.57,2.07,17.2,5.8c3.84,3.74,5.62,9.25,5.62,16.04v30.79h-11.61v-6.49
		C699,99.2,693.59,102.55,685.62,102.55L685.62,102.55z M609.56,101.85h10.62l11.71-35.51l11.6,35.51h10.72l17.02-52.33h-12
		l-10.62,35.61l-11.51-35.8h-10.22l-11.51,35.8l-10.43-35.61h-12.19L609.56,101.85L609.56,101.85z M568.92,92.21
		c9.63,0,15.73-7.48,15.73-16.42V75.6c0-9.15-6.6-16.72-15.93-16.72c-9.54,0-15.65,7.47-15.65,16.52v0.2
		C553.07,84.64,559.67,92.21,568.92,92.21L568.92,92.21z M568.72,102.64c-15.84,0-27.55-12.1-27.55-26.86v-0.19
		c0-14.85,11.81-27.14,27.74-27.14s27.63,12.09,27.63,26.95v0.2C596.55,90.35,584.75,102.64,568.72,102.64L568.72,102.64z
		 M514.3,101.46h11.89V81.7c0-13.78,7.28-20.56,17.7-20.56h0.69V48.55c-9.15-0.4-15.15,4.92-18.39,12.69V49.53H514.3V101.46
		L514.3,101.46z M491.25,102.64c10.12,0,16.13-4.04,21.24-9.74l-7.18-7.08c-3.74,3.84-7.87,6.39-13.48,6.39
		c-9.15,0-15.53-7.38-15.53-16.62v-0.2c0-9.05,6.39-16.52,15.04-16.52c5.91,0,9.74,2.66,13.37,6.49l7.48-7.96
		c-4.91-5.31-11.02-8.95-20.75-8.95c-15.64,0-27.05,12.39-27.05,27.14v0.19C464.39,90.54,475.81,102.64,491.25,102.64L491.25,102.64
		z M448.92,101.46h11.9V49.53h-11.9V101.46L448.92,101.46z M448.44,41.56h12.78V30.25h-12.78V41.56L448.44,41.56z M373.36,101.46
		h11.9V52.29l21.54,32.26h0.4l21.73-32.45v49.37h12.09V32.61h-12.88L407.2,65.17l-20.95-32.56h-12.88v68.85
		C373.37,101.46,373.36,101.46,373.36,101.46z"/>
	<g class="st2">
		<path class="st3" d="M390.56,113.41h-14.58v8.53h13.04v2.57h-13.04v8.75h14.75v2.57h-17.44v-24.99h17.27V113.41z"/>
		<path class="st3" d="M401.55,136.19c-2.53,0-5.33-1.04-7.3-2.71l1.33-1.96c1.91,1.5,4.03,2.36,6.11,2.36
			c2.12,0,3.65-1.14,3.65-2.93v-0.07c0-1.86-2.08-2.57-4.4-3.25c-2.76-0.82-5.84-1.82-5.84-5.21v-0.07c0-3.18,2.53-5.28,6.01-5.28
			c2.15,0,4.54,0.79,6.35,2.04l-1.2,2.07c-1.64-1.11-3.52-1.79-5.22-1.79c-2.08,0-3.41,1.14-3.41,2.68v0.07
			c0,1.75,2.18,2.43,4.54,3.18c2.73,0.86,5.67,1.96,5.67,5.28v0.07C407.83,134.16,405.07,136.19,401.55,136.19z"/>
		<path class="st3" d="M420.66,136.26c-5.15,0-9.05-4.39-9.05-9.6c0-5.25,3.89-9.68,9.05-9.68c3.34,0,5.43,1.46,7.07,3.29
			l-1.74,1.93c-1.4-1.54-2.97-2.78-5.36-2.78c-3.58,0-6.31,3.18-6.31,7.18c0,4.04,2.8,7.21,6.49,7.21c2.25,0,3.99-1.18,5.39-2.75
			l1.67,1.64C426.09,134.76,423.97,136.26,420.66,136.26z"/>
		<path class="st3" d="M439.74,136.26c-5.29,0-9.15-4.36-9.15-9.6s3.89-9.68,9.22-9.68c5.29,0,9.18,4.36,9.18,9.61
			C448.99,131.84,445.07,136.26,439.74,136.26z M439.74,119.41c-3.82,0-6.45,3.18-6.45,7.18s2.8,7.21,6.52,7.21
			c3.82,0,6.49-3.18,6.49-7.14C446.3,122.63,443.46,119.41,439.74,119.41z"/>
		<path class="st3" d="M453.98,135.84v-26.07h2.63v26.07H453.98z"/>
		<path class="st3" d="M463.74,120.91l-0.79-2.25c1.95-0.93,3.86-1.54,6.42-1.54c4.81,0,7.51,2.57,7.51,7.43v11.28h-2.53v-2.79
			c-1.23,1.68-3.28,3.18-6.38,3.18c-3.28,0-6.59-1.93-6.59-5.79c0-3.93,3.07-6,7.54-6c2.25,0,3.86,0.32,5.43,0.79v-0.64
			c0-3.32-1.95-5.03-5.26-5.03C467.01,119.56,465.37,120.13,463.74,120.91z M464.04,130.34c0,2.36,2.05,3.71,4.44,3.71
			c3.24,0,5.91-2.07,5.91-5v-1.79c-1.3-0.39-3.04-0.79-5.19-0.79C465.89,126.48,464.04,127.98,464.04,130.34z"/>
		<path class="st3" d="M506.88,135.84v-3.71c-1.43,2.21-3.52,4.11-6.76,4.11c-4.23,0-8.43-3.5-8.43-9.61c0-6.07,4.2-9.64,8.43-9.64
			c3.28,0,5.39,1.86,6.76,3.93v-11.14h2.63v26.07H506.88z M500.6,119.45c-3.41,0-6.21,2.64-6.21,7.14c0,4.39,2.87,7.18,6.21,7.18
			c3.28,0,6.38-2.86,6.38-7.18C506.98,122.3,503.88,119.45,500.6,119.45z"/>
		<path class="st3" d="M523.16,133.87c2.42,0,4.13-1.04,5.56-2.61l1.64,1.54c-1.77,2.07-3.92,3.46-7.27,3.46
			c-4.85,0-8.81-3.89-8.81-9.64c0-5.36,3.58-9.64,8.47-9.64c5.22,0,8.23,4.36,8.23,9.78c0,0.25,0,0.54-0.03,0.86h-14
			C517.32,131.62,520.05,133.87,523.16,133.87z M528.31,125.59c-0.27-3.36-2.12-6.28-5.63-6.28c-3.07,0-5.39,2.68-5.73,6.28H528.31z
			"/>
		<path class="st3" d="M554.76,127.02h-5.8v8.82h-2.7v-24.99h8.94c5.39,0,8.94,3,8.94,7.96
			C564.15,124.23,559.85,127.02,554.76,127.02z M555,113.45h-6.04v11h5.91c3.96,0,6.55-2.21,6.55-5.53
			C561.42,115.31,558.86,113.45,555,113.45z"/>
		<path class="st3" d="M571.25,135.84h-2.63v-18.46h2.63v4.82c1.3-3.07,3.86-5.28,7.2-5.14v2.96h-0.2c-3.86,0-7,2.89-7,8.46V135.84z
			"/>
		<path class="st3" d="M589.75,136.26c-5.29,0-9.15-4.36-9.15-9.6s3.89-9.68,9.22-9.68c5.29,0,9.18,4.36,9.18,9.61
			C599,131.84,595.07,136.26,589.75,136.26z M589.75,119.41c-3.82,0-6.45,3.18-6.45,7.18s2.8,7.21,6.52,7.21
			c3.82,0,6.49-3.18,6.49-7.14C596.3,122.63,593.47,119.41,589.75,119.41z"/>
		<path class="st3" d="M612.92,117.45v2.36h-5.56v16.03h-2.63v-16.03h-2.42v-2.39h2.42v-1.61c0-4.04,1.95-6.18,5.32-6.18
			c1.23,0,2.05,0.14,2.9,0.46v2.39c-0.96-0.29-1.67-0.46-2.56-0.46c-2.05,0-3.07,1.29-3.07,3.93v1.5H612.92z"/>
		<path class="st3" d="M616.33,113.34v-3.03h3v3.03H616.33z M616.51,135.84v-18.46h2.63v18.46H616.51z"/>
		<path class="st3" d="M631.08,136.19c-2.53,0-5.33-1.04-7.3-2.71l1.33-1.96c1.91,1.5,4.03,2.36,6.11,2.36
			c2.12,0,3.65-1.14,3.65-2.93v-0.07c0-1.86-2.08-2.57-4.4-3.25c-2.76-0.82-5.84-1.82-5.84-5.21v-0.07c0-3.18,2.53-5.28,6.01-5.28
			c2.15,0,4.54,0.79,6.35,2.04l-1.2,2.07c-1.64-1.11-3.52-1.79-5.22-1.79c-2.08,0-3.41,1.14-3.41,2.68v0.07
			c0,1.75,2.18,2.43,4.54,3.18c2.73,0.86,5.67,1.96,5.67,5.28v0.07C637.36,134.16,634.6,136.19,631.08,136.19z"/>
		<path class="st3" d="M647.74,136.19c-2.53,0-5.33-1.04-7.3-2.71l1.33-1.96c1.91,1.5,4.03,2.36,6.11,2.36
			c2.12,0,3.65-1.14,3.65-2.93v-0.07c0-1.86-2.08-2.57-4.4-3.25c-2.76-0.82-5.84-1.82-5.84-5.21v-0.07c0-3.18,2.53-5.28,6.01-5.28
			c2.15,0,4.54,0.79,6.35,2.04l-1.2,2.07c-1.64-1.11-3.52-1.79-5.22-1.79c-2.08,0-3.41,1.14-3.41,2.68v0.07
			c0,1.75,2.18,2.43,4.54,3.18c2.73,0.86,5.67,1.96,5.67,5.28v0.07C654.02,134.16,651.25,136.19,647.74,136.19z"/>
		<path class="st3" d="M666.95,136.26c-5.29,0-9.15-4.36-9.15-9.6s3.89-9.68,9.22-9.68c5.29,0,9.18,4.36,9.18,9.61
			C676.2,131.84,672.28,136.26,666.95,136.26z M666.95,119.41c-3.82,0-6.45,3.18-6.45,7.18s2.8,7.21,6.52,7.21
			c3.82,0,6.49-3.18,6.49-7.14C673.5,122.63,670.67,119.41,666.95,119.41z M669.34,114.59c-1.54,0-3.41-1.43-4.57-1.43
			c-0.89,0-1.26,0.46-1.78,1.75l-1.6-0.46c0.68-2.68,1.6-3.75,3.24-3.75c1.54,0,3.41,1.43,4.57,1.43c0.89,0,1.26-0.46,1.77-1.75
			l1.6,0.46C671.9,113.52,670.98,114.59,669.34,114.59z"/>
		<path class="st3" d="M688.73,133.87c2.42,0,4.13-1.04,5.56-2.61l1.64,1.54c-1.77,2.07-3.92,3.46-7.27,3.46
			c-4.85,0-8.81-3.89-8.81-9.64c0-5.36,3.58-9.64,8.47-9.64c5.22,0,8.23,4.36,8.23,9.78c0,0.25,0,0.54-0.03,0.86h-14
			C682.89,131.62,685.62,133.87,688.73,133.87z M693.88,125.59c-0.27-3.36-2.12-6.28-5.63-6.28c-3.07,0-5.39,2.68-5.73,6.28H693.88z
			"/>
		<path class="st3" d="M706.99,136.19c-2.53,0-5.33-1.04-7.3-2.71l1.33-1.96c1.91,1.5,4.03,2.36,6.11,2.36
			c2.12,0,3.65-1.14,3.65-2.93v-0.07c0-1.86-2.08-2.57-4.4-3.25c-2.76-0.82-5.84-1.82-5.84-5.21v-0.07c0-3.18,2.53-5.28,6.01-5.28
			c2.15,0,4.54,0.79,6.35,2.04l-1.2,2.07c-1.64-1.11-3.52-1.79-5.22-1.79c-2.08,0-3.41,1.14-3.41,2.68v0.07
			c0,1.75,2.18,2.43,4.54,3.18c2.73,0.86,5.67,1.96,5.67,5.28v0.07C713.27,134.16,710.5,136.19,706.99,136.19z"/>
	</g>
	<path class="st0" d="M71.31,132.17c35.79,0,64.98-29.19,64.98-64.98c0-35.78-29.19-64.97-64.98-64.97
		C35.53,2.21,6.34,31.4,6.34,67.18C6.34,102.98,35.53,132.17,71.31,132.17z"/>
	<g>
		<path class="st4" d="M25.94,58.92L25.94,58.92c9.37-9.37,24.69-9.37,34.06,0l18.77,18.77c2.43,2.43,2.43,6.37,0,8.81
			c-2.43,2.43-6.38,2.43-8.81,0L51.28,67.82c-4.52-4.52-11.92-4.52-16.44,0s-4.52,11.91,0,16.44l18.68,18.67
			c2.43,2.43,2.43,6.38,0,8.81s-6.38,2.43-8.81,0L25.94,92.98C16.57,83.61,16.57,68.29,25.94,58.92z"/>
		<path class="st1" d="M116.69,74.01L116.69,74.01c-4.98,4.98-11.64,7.31-18.21,6.99c0.32,6.56-2.02,13.23-6.99,18.21
			c-9.37,9.37-24.7,9.37-34.06,0L38.67,80.44c-2.43-2.43-2.43-6.37,0-8.8s6.37-2.43,8.81,0L66.15,90.3c4.52,4.52,11.92,4.52,16.44,0
			c4.27-4.27,4.5-11.11,0.7-15.66c-0.22-0.21-0.44-0.42-0.65-0.63L63.86,55.24c-2.43-2.43-2.43-6.37,0-8.81l0.02-0.01l0.03-0.03
			c2.43-2.43,6.38-2.43,8.81,0l18.77,18.77c0.22,0.21,0.43,0.43,0.63,0.65c4.55,3.8,11.4,3.57,15.67-0.7
			c4.52-4.53,4.52-11.92,0-16.45L89.11,30c-2.43-2.43-2.43-6.38,0-8.82c2.43-2.43,6.38-2.43,8.81,0l18.77,18.77
			C126.06,49.32,126.06,64.64,116.69,74.01z"/>
	</g>
</g>
</svg>
